<svg width="48" height="48" viewBox="0 0 48 48" fill="none" xmlns="http://www.w3.org/2000/svg">
<circle cx="24" cy="24" r="24" fill="#FAFAFA"/>
<path fill-rule="evenodd" clip-rule="evenodd" d="M31.7576 20.4184V17.697C31.7576 13.8206 28.2773 10.6667 24 10.6667C19.7227 10.6667 16.2424 13.8206 16.2424 17.697V20.4184C14.5935 20.7026 13.3333 22.1396 13.3333 23.8691V33.344C13.3333 35.2761 14.9057 36.8485 16.8383 36.8485H31.1617C33.0943 36.8485 34.6667 35.2761 34.6667 33.3435V23.8686C34.6667 22.1396 33.4066 20.7026 31.7576 20.4184ZM17.2121 17.697C17.2121 14.3549 20.257 11.6364 24 11.6364C27.743 11.6364 30.7879 14.3549 30.7879 17.697V20.3636H17.2121V17.697ZM22.0606 26.1818C22.0606 25.1122 22.9304 24.2424 24 24.2424C25.0696 24.2424 25.9394 25.1122 25.9394 26.1818V29.0909C25.9394 30.1605 25.0696 31.0303 24 31.0303C22.9304 31.0303 22.0606 30.1605 22.0606 29.0909V26.1818ZM24 30.0606C24.5348 30.0606 24.9697 29.6257 24.9697 29.0909V26.1818C24.9697 25.647 24.5348 25.2121 24 25.2121C23.4652 25.2121 23.0303 25.647 23.0303 26.1818V29.0909C23.0303 29.6257 23.4652 30.0606 24 30.0606Z" fill="#616161"/>
</svg>
