<svg xmlns="http://www.w3.org/2000/svg" width="22" height="29" viewBox="0 0 22 29">
    <g fill="#FD2121" fill-rule="nonzero">
        <path d="M20.157 12.624h-.426V8.85c0-4.878-3.966-8.85-8.85-8.85-4.878 0-9.27 3.298-8.85 12.85.02.45.36.81.81.81.45 0 .86-.365.81-.81-.81-7.28 3.24-11.23 7.23-11.23 3.984 0 7.23 3.24 7.23 7.23v3.774h-16.5c-.864 0-1.566.702-1.566 1.566v10.086a4.699 4.699 0 0 0 4.692 4.692h12.294a4.699 4.699 0 0 0 4.692-4.692V14.19c0-.864-.702-1.566-1.566-1.566zm-3.126 14.724H4.743a3.074 3.074 0 0 1-3.072-3.072V14.244h18.432v10.032a3.074 3.074 0 0 1-3.072 3.072z"/>
        <path d="M10.887 23.946a3.033 3.033 0 0 0 3.03-3.03 3.033 3.033 0 0 0-3.03-3.03 3.033 3.033 0 0 0-3.03 3.03 3.033 3.033 0 0 0 3.03 3.03zm0-4.446a1.412 1.412 0 0 1 0 2.826 1.412 1.412 0 0 1 0-2.826z"/>
    </g>
</svg>
